<svg width="20" height="20" viewBox="0 0 20 20" fill="none" xmlns="http://www.w3.org/2000/svg">
<g id="&#229;&#174;&#162;&#230;&#136;&#183;">
<path id="Ellipse 711" d="M14 7C14 9.20914 12.2091 11 10 11C7.79086 11 6 9.20914 6 7C6 4.79086 7.79086 3 10 3C12.2091 3 14 4.79086 14 7Z" fill="#262626" fill-opacity="0.1"/>
<g id="Union">
<path d="M6.60002 7.00039C6.60002 5.12262 8.12226 3.60039 10 3.60039C11.8778 3.60039 13.4 5.12262 13.4 7.00039C13.4 8.87816 11.8778 10.4004 10 10.4004C8.12226 10.4004 6.60002 8.87816 6.60002 7.00039ZM10 2.40039C7.45951 2.40039 5.40002 4.45988 5.40002 7.00039C5.40002 9.5409 7.45951 11.6004 10 11.6004C12.5405 11.6004 14.6 9.5409 14.6 7.00039C14.6 4.45988 12.5405 2.40039 10 2.40039ZM4.00002 11.9004C3.11637 11.9004 2.40002 12.6167 2.40002 13.5004V16.5004C2.40002 17.384 3.11637 18.1004 4.00002 18.1004H16C16.8837 18.1004 17.6 17.384 17.6 16.5004V13.5004C17.6 12.6167 16.8837 11.9004 16 11.9004H4.00002ZM3.60002 13.5004C3.60002 13.2795 3.77911 13.1004 4.00002 13.1004H16C16.2209 13.1004 16.4 13.2795 16.4 13.5004V16.5004C16.4 16.7213 16.2209 16.9004 16 16.9004H4.00002C3.77911 16.9004 3.60002 16.7213 3.60002 16.5004V13.5004Z" fill="#262626"/>
</g>
</g>
</svg>
