<svg width="20" height="20" viewBox="0 0 20 20" fill="none" xmlns="http://www.w3.org/2000/svg">
<g id="&#231;&#167;&#175;&#229;&#136;&#134;">
<g id="Group 1000007633">
<path id="Vector" d="M10 19C7.59578 19 5.33698 18.0641 3.63643 16.3636C1.93589 14.663 1 12.4042 1 10C1 7.59578 1.93589 5.33698 3.63643 3.63643C5.33698 1.93589 7.59578 1 10 1C12.4042 1 14.663 1.93589 16.3636 3.63643C18.0641 5.33698 19 7.59578 19 10C19 12.4042 18.0641 14.663 16.3636 16.3636C14.663 18.0641 12.4042 19 10 19ZM10 2.12353C7.89601 2.12353 5.91869 2.94214 4.43159 4.43159C2.94214 5.91869 2.12353 7.89601 2.12353 10C2.12353 12.104 2.94214 14.0813 4.43159 15.5684C5.91869 17.0555 7.89836 17.8765 10 17.8765C12.1016 17.8765 14.0813 17.0579 15.5684 15.5684C17.0555 14.0813 17.8765 12.1016 17.8765 10C17.8765 7.89836 17.0579 5.91869 15.5684 4.43159C14.0813 2.94214 12.104 2.12353 10 2.12353Z" fill="#8C8C8C"/>
<path id="Vector_2" d="M12.5966 14.41C12.4629 14.41 12.3292 14.3771 12.2049 14.3114L9.97663 13.141L7.74832 14.3114C7.46216 14.4616 7.12205 14.4381 6.86169 14.2481C6.60133 14.0581 6.47233 13.7415 6.52628 13.4248L6.95083 10.9432L5.14942 9.18635C4.91721 8.96117 4.83511 8.63044 4.93597 8.32317C5.03683 8.0159 5.29719 7.79542 5.61619 7.75085L8.10485 7.38963L9.21901 5.13318C9.36209 4.84233 9.65059 4.66406 9.97428 4.66406C10.298 4.66406 10.5865 4.84467 10.7296 5.13318L11.8437 7.38963L14.3324 7.75085C14.6514 7.79776 14.9141 8.0159 15.0126 8.32552C15.1135 8.63279 15.0314 8.96352 14.7991 9.18869L12.9977 10.9455L13.4246 13.4248C13.4786 13.7438 13.3519 14.0581 13.0892 14.2481C12.9438 14.356 12.7702 14.41 12.5966 14.41ZM6.34097 8.78056L7.8398 10.2419C8.03918 10.4365 8.12831 10.7133 8.0814 10.9878L7.72721 13.0519L9.58257 12.0784C9.82886 11.9494 10.1221 11.9494 10.366 12.0784L12.2214 13.0519L11.8672 10.9878C11.8203 10.7133 11.9117 10.4365 12.1088 10.2419L13.6076 8.78056L11.5341 8.48033C11.2597 8.44045 11.0228 8.26922 10.8984 8.02059L9.97663 6.14178L9.05012 8.02059C8.92815 8.26922 8.69125 8.4428 8.41447 8.48267L6.34097 8.78056Z" fill="#8C8C8C"/>
</g>
</g>
</svg>
