<svg width="20" height="20" viewBox="0 0 20 20" fill="none" xmlns="http://www.w3.org/2000/svg">
<g id="&#232;&#144;&#165;&#233;&#148;&#128;">
<path id="Vector 2" d="M8.77391 3.71913L11 5.5L8.77391 7.28087C8.5966 7.42272 8.37629 7.5 8.14922 7.5H2.5V4.5C2.5 3.94772 2.94772 3.5 3.5 3.5H8.14922C8.37629 3.5 8.5966 3.57728 8.77391 3.71913Z" fill="#262626" fill-opacity="0.1"/>
<g id="Union">
<path d="M3.50003 2.90039C2.61637 2.90039 1.90002 3.61673 1.90002 4.50039V7.49961V8.10039V15.4996C1.90002 16.3833 2.61637 17.0996 3.50003 17.0996L16.5 17.0996C17.3837 17.0996 18.1 16.3833 18.1 15.4996V6.49961C18.1 5.61595 17.3837 4.89961 16.5 4.89961L11.3508 4.89961C11.3059 4.89961 11.2611 4.9015 11.2166 4.90525L9.14876 3.251C8.86506 3.02404 8.51256 2.90039 8.14924 2.90039H3.50003ZM3.10002 8.10039H8.14924C8.51256 8.10039 8.86506 7.97674 9.14876 7.74978L11.1186 6.17393C11.1862 6.1257 11.2674 6.09961 11.3508 6.09961L16.5 6.09961C16.7209 6.09961 16.9 6.2787 16.9 6.49961V15.4996C16.9 15.7205 16.7209 15.8996 16.5 15.8996L3.50003 15.8996C3.27911 15.8996 3.10003 15.7205 3.10003 15.4996L3.10002 8.10039ZM10.0391 5.5L8.39912 6.81196C8.3282 6.8687 8.24007 6.89961 8.14924 6.89961L3.10002 6.89961V4.50039C3.10002 4.27948 3.27911 4.10039 3.50003 4.10039H8.14924C8.24007 4.10039 8.3282 4.1313 8.39912 4.18804L10.0391 5.5Z" fill="#262626"/>
</g>
</g>
</svg>
