<svg width="20" height="20" viewBox="0 0 20 20" fill="none" xmlns="http://www.w3.org/2000/svg">
<g id="&#232;&#174;&#190;&#231;&#189;&#174;">
<path id="Ellipse 711" d="M13 10C13 11.6569 11.6569 13 10 13C8.34315 13 7 11.6569 7 10C7 8.34315 8.34315 7 10 7C11.6569 7 13 8.34315 13 10Z" fill="#262626" fill-opacity="0.1"/>
<g id="Union">
<path d="M18.7309 10.8003C19.0167 10.3052 19.0167 9.69532 18.7309 9.20028L15.0583 2.83906C14.7725 2.34402 14.2443 2.03906 13.6726 2.03906H6.32734C5.75571 2.03906 5.22751 2.34402 4.9417 2.83906L1.26905 9.20028C0.983234 9.69532 0.983234 10.3052 1.26905 10.8003L4.9417 17.1615C5.22751 17.6565 5.75571 17.9615 6.32734 17.9615H13.6726C14.2443 17.9615 14.7725 17.6565 15.0583 17.1615L18.7309 10.8003ZM17.6917 9.80028C17.7631 9.92404 17.7631 10.0765 17.6917 10.2003L14.019 16.5615C13.9476 16.6853 13.8155 16.7615 13.6726 16.7615H6.32734C6.18443 16.7615 6.05238 16.6853 5.98093 16.5615L2.30828 10.2003C2.23682 10.0765 2.23682 9.92404 2.30828 9.80028L5.98093 3.43906C6.05238 3.3153 6.18443 3.23906 6.32734 3.23906L13.6726 3.23906C13.8155 3.23906 13.9476 3.3153 14.019 3.43906L17.6917 9.80028ZM7.6 10.0004C7.6 8.67491 8.67451 7.60039 10 7.60039C11.3255 7.60039 12.4 8.67491 12.4 10.0004C12.4 11.3259 11.3255 12.4004 10 12.4004C8.67451 12.4004 7.6 11.3259 7.6 10.0004ZM10 6.40039C8.01177 6.40039 6.4 8.01217 6.4 10.0004C6.4 11.9886 8.01177 13.6004 10 13.6004C11.9882 13.6004 13.6 11.9886 13.6 10.0004C13.6 8.01217 11.9882 6.40039 10 6.40039Z" fill="#262626"/>
</g>
</g>
</svg>
