<svg width="20" height="20" viewBox="0 0 20 20" fill="none" xmlns="http://www.w3.org/2000/svg">
<g id="&#231;&#179;&#187;&#231;&#187;&#159;&#231;&#174;&#161;&#231;&#144;&#134;">
<path id="Ellipse 711" d="M12.5 10.5C12.5 11.8807 11.3807 13 10 13C8.61929 13 7.5 11.8807 7.5 10.5C7.5 9.11929 8.61929 8 10 8C11.3807 8 12.5 9.11929 12.5 10.5Z" fill="#262626" fill-opacity="0.1"/>
<g id="Union">
<path d="M4.50002 1.90039C3.61637 1.90039 2.90002 2.61673 2.90002 3.50039V16.5004C2.90002 17.384 3.61637 18.1004 4.50002 18.1004H15.5C16.3837 18.1004 17.1 17.384 17.1 16.5004V3.50039C17.1 2.61674 16.3837 1.90039 15.5 1.90039H4.50002ZM4.10002 3.50039C4.10002 3.27948 4.27911 3.10039 4.50002 3.10039H15.5C15.7209 3.10039 15.9 3.27948 15.9 3.50039V16.5004C15.9 16.7213 15.7209 16.9004 15.5 16.9004H4.50002C4.27911 16.9004 4.10002 16.7213 4.10002 16.5004V3.50039ZM7.00002 4.40039C6.66865 4.40039 6.40002 4.66902 6.40002 5.00039C6.40002 5.33176 6.66865 5.60039 7.00002 5.60039H13C13.3314 5.60039 13.6 5.33176 13.6 5.00039C13.6 4.66902 13.3314 4.40039 13 4.40039H7.00002ZM10 8.60039C8.95068 8.60039 8.10002 9.45105 8.10002 10.5004C8.10002 11.5497 8.95068 12.4004 10 12.4004C11.0494 12.4004 11.9 11.5497 11.9 10.5004C11.9 9.45105 11.0494 8.60039 10 8.60039ZM6.90002 10.5004C6.90002 8.78831 8.28794 7.40039 10 7.40039C11.7121 7.40039 13.1 8.78831 13.1 10.5004C13.1 11.446 12.6767 12.2927 12.0092 12.8613C12.8371 13.2639 13.5259 13.9075 13.9843 14.7C14.1502 14.9868 14.0522 15.3538 13.7653 15.5198C13.4785 15.6857 13.1115 15.5877 12.9455 15.3008C12.3568 14.283 11.2578 13.6004 10 13.6004C8.7423 13.6004 7.6433 14.283 7.05452 15.3008C6.8886 15.5877 6.52156 15.6857 6.23472 15.5198C5.94789 15.3538 5.84987 14.9868 6.01579 14.7C6.47421 13.9075 7.16298 13.2639 7.9909 12.8613C7.32339 12.2927 6.90002 11.446 6.90002 10.5004Z" fill="#262626"/>
</g>
</g>
</svg>
