<svg width="64" height="64" viewBox="0 0 64 64" fill="none" xmlns="http://www.w3.org/2000/svg">
<g id="LOGO">
<rect width="64" height="64" rx="10" fill="#262626"/>
<path id="Union" fill-rule="evenodd" clip-rule="evenodd" d="M8.5752 36.4439V38.1063H11.6667H13.3496H16.4411V36.4928H13.7695L16.5009 27.3283V25.8125H13.4094H11.9136H8.82215V27.4261H11.3066L8.5752 36.4439ZM13.3803 27.4261L10.678 36.4928H11.6667V36.4439L14.3981 27.4261H13.3803ZM17.78 25.8125V38.1063H19.8005V32.3646L21.9183 38.1063H24.0361L21.6788 31.8756L23.864 25.8125H21.7911L19.7855 31.4705V25.8125H17.78ZM25.8178 38.1063V27.4331H24.2762V25.8125H29.2976V27.4331H27.8159V38.1063H25.8178ZM30.2143 32.9389V38.1063H32.2198V32.9389L34.5411 32.9389V38.1063H36.5467V25.8125H34.5411V30.9449L32.2198 30.9449V25.8125H30.2143V30.9449H30.2134V32.9389H30.2143ZM38.2484 38.1063V25.8125H40.254V38.1063H38.2484ZM41.9029 25.8125V38.1063H43.7513V33.6987L43.6391 30.4716L46.5052 38.1063H47.927V25.8125H46.1235V29.8359L46.2657 33.1888L43.4744 25.8125H41.9029ZM49.6515 25.8125V38.1063H51.672V32.3646L53.7898 38.1063H55.9076L53.5503 31.8756L55.7355 25.8125H53.6626L51.657 31.4705V25.8125H49.6515Z" fill="white"/>
</g>
</svg>
